# xmcd
#
# Track frame offsets: 
#        182
#        22507
#        40907
#        57557
#        71422
#        98257
#        117982
#        133895
#        164820
#        187695
#        207157
#        221557
#        237832
#        258042
#        275812
#        295257
#        313520
#        332045
#
# Disc length: 4635 seconds
#
# Revision: 7
# Processed by: cddbd v1.5.2PL0 Copyright (c) Steve Scherf et al.
# Submitted via: ExactAudioCopy v0.99pb4
#
DISCID=04121912
DTITLE=Various Artist - Fetenkult Black Party [CD1)
DYEAR=1999
DGENRE=Blues
TTITLE0=Kool and the Gang - Celebration
TTITLE1=Diana Ross - Upside own
TTITLE2=Chic - Good Times
TTITLE3=KC and the sunshine band - That's the Way
TTITLE4=The Jacksons - Can you feel it
TTITLE5=Mothers finest - Baby Love
TTITLE6=Commodores - Brick House
TTITLE7=The Temptations - Papa was a Rolling Stone
TTITLE8=James Brown - Sex Machine
TTITLE9=Sugarhill Gang - Rapper's delight
TTITLE10=Grandmaster Flash and the furious five - The Message
TTITLE11=Tag Team - Whoomp!
TTITLE12=Naughty by nature - O.P.P
TTITLE13=Readhead kingpin and the FBI - Do the right thing
TTITLE14=Cameo - World up
TTITLE15=Coolio - Ooh La La
TTITLE16=De la Soul - Ring Ring Ring (Ha Ha Hey)
TTITLE17=Salt n pepa - Push it
EXTD=YEAR: 1999
EXTT0=
EXTT1=
EXTT2=
EXTT3=
EXTT4=
EXTT5=
EXTT6=
EXTT7=
EXTT8=
EXTT9=
EXTT10=
EXTT11=
EXTT12=
EXTT13=
EXTT14=
EXTT15=
EXTT16=
EXTT17=
PLAYORDER=
